<svg width="32" height="42" viewBox="0 0 32 42" fill="none" xmlns="http://www.w3.org/2000/svg">
<path d="M31.1758 11.523V39.2496C31.1758 40.7426 29.9699 41.9484 28.477 41.9484H3.52305C2.03008 41.9484 0.824219 40.7426 0.824219 39.2496V2.7457C0.824219 1.25273 2.03008 0.046875 3.52305 0.046875H19.6996L31.1758 11.523Z" fill="#22C55E"/>
<path d="M22.6364 20.9102H9.36377C8.88799 20.9102 8.50244 21.2957 8.50244 21.7715V33.3297C8.50244 33.8055 8.88799 34.191 9.36377 34.191H22.6446C23.1204 34.191 23.506 33.8055 23.506 33.3297V21.7797C23.4978 21.3039 23.1122 20.9102 22.6364 20.9102ZM10.2251 26.4555H15.1388V28.6457H10.2251V26.4555ZM16.8614 26.4555H21.7751V28.6457H16.8614V26.4555ZM21.7751 24.7328H16.8614V22.641H21.7751V24.7328ZM15.1388 22.641V24.7328H10.2251V22.641H15.1388ZM10.2251 30.3766H15.1388V32.4684H10.2251V30.3766ZM16.8614 32.4684V30.3766H21.7751V32.4684H16.8614Z" fill="white"/>
<path opacity="0.19" d="M21.2417 11.109L31.1757 19.1562V11.6012L25.5401 8.32812L21.2417 11.109Z" fill="black"/>
<path d="M31.1759 11.523H22.3985C20.9056 11.523 19.6997 10.3172 19.6997 8.82422V0.046875L31.1759 11.523Z" fill="#8ED1B1"/>
</svg>
