<svg width="24" height="16" viewBox="0 0 24 16" fill="none" xmlns="http://www.w3.org/2000/svg">
<g clip-path="url(#clip0_3386_2790)">
<path d="M24 0.015625H0V15.9846H24V0.015625Z" fill="#F0F0F0"/>
<path d="M13.5 0.015625H10.5V6.50292H0V9.49708H10.5V15.9844H13.5V9.49708H24V6.50292H13.5V0.015625Z" fill="#D80027"/>
<path d="M18.4587 10.7769L24 13.8494V10.7769H18.4587Z" fill="#0052B4"/>
<path d="M14.6087 10.7769L24 15.9841V14.5116L17.2644 10.7769H14.6087Z" fill="#0052B4"/>
<path d="M21.4985 15.9841L14.6087 12.1636V15.9841H21.4985Z" fill="#0052B4"/>
<path d="M14.6087 10.7769L24 15.9841V14.5116L17.2644 10.7769H14.6087Z" fill="#F0F0F0"/>
<path d="M14.6087 10.7769L24 15.9841V14.5116L17.2644 10.7769H14.6087Z" fill="#D80027"/>
<path d="M4.23473 10.7769L0 13.1249V10.7769H4.23473Z" fill="#0052B4"/>
<path d="M9.39131 11.439V15.984H1.19489L9.39131 11.439Z" fill="#0052B4"/>
<path d="M6.73561 10.7769L0 14.5116V15.9841L9.39131 10.7769H6.73561Z" fill="#D80027"/>
<path d="M5.54133 5.22295L0 2.15039V5.22295H5.54133Z" fill="#0052B4"/>
<path d="M9.39131 5.22283L0 0.015625V1.48809L6.73561 5.22283H9.39131Z" fill="#0052B4"/>
<path d="M2.50153 0.015625L9.39131 3.83616V0.015625H2.50153Z" fill="#0052B4"/>
<path d="M9.39131 5.22283L0 0.015625V1.48809L6.73561 5.22283H9.39131Z" fill="#F0F0F0"/>
<path d="M9.39131 5.22283L0 0.015625V1.48809L6.73561 5.22283H9.39131Z" fill="#D80027"/>
<path d="M19.7653 5.22307L24 2.875V5.22307H19.7653Z" fill="#0052B4"/>
<path d="M14.6087 4.5607V0.015625H22.8051L14.6087 4.5607Z" fill="#0052B4"/>
<path d="M17.2644 5.22283L24 1.48809V0.015625L14.6087 5.22283H17.2644Z" fill="#D80027"/>
</g>
<defs>
<clipPath id="clip0_3386_2790">
<rect width="24" height="16" rx="2" fill="white"/>
</clipPath>
</defs>
</svg>
