<svg width="24" height="16" viewBox="0 0 24 16" fill="none" xmlns="http://www.w3.org/2000/svg">
<g clip-path="url(#clip0_3386_2852)">
<path d="M22.2026 0.137695H1.79742C0.804703 0.137695 0 0.942399 0 1.93512V4.91351H24V1.93512C24 0.942399 23.1953 0.137695 22.2026 0.137695Z" fill="#82AFFF"/>
<path d="M0 14.0648C0 15.0575 0.804703 15.8622 1.79742 15.8622H22.2026C23.1952 15.8622 24 15.0575 24 14.0648V11.0864H0V14.0648Z" fill="#73AF00"/>
<path d="M24 5.56738H0V10.4325H24V5.56738Z" fill="#F5F5F5"/>
<path d="M0 5.37918V5.56715H24V5.37918V4.91357H0V5.37918Z" fill="#FF4B55"/>
<path d="M0 10.6206V11.0862H24V10.6206V10.4326H0V10.6206Z" fill="#FF4B55"/>
<path d="M5.31987 4.06602C4.47275 4.06602 3.78608 3.38099 3.78608 2.53691C3.78608 1.68974 4.4727 1.00161 5.31987 1.00161C5.32315 1.00161 5.32634 1.00161 5.32953 1.00166C5.3794 1.00232 5.39689 0.936084 5.35292 0.912505C5.09206 0.772677 4.79436 0.693553 4.47786 0.695849C3.46423 0.703068 2.64087 1.54302 2.65165 2.55665C2.66225 3.55982 3.48237 4.37183 4.49112 4.37183C4.80326 4.37183 5.0968 4.29285 5.35442 4.15494C5.39825 4.13146 5.38053 4.06522 5.33084 4.06593C5.32709 4.06602 5.32348 4.06602 5.31987 4.06602Z" fill="#F5F5F5"/>
<path d="M6.52091 3.64298L6.45243 3.84839L6.23591 3.85003C6.20788 3.85021 6.19626 3.88603 6.2188 3.90267L6.39299 4.03129L6.32765 4.23773C6.31921 4.26445 6.34963 4.28657 6.37246 4.27026L6.54862 4.14436L6.72477 4.27026C6.7476 4.28657 6.77798 4.26445 6.76959 4.23773L6.70424 4.03129L6.87838 3.90267C6.90093 3.88603 6.8893 3.85021 6.86127 3.85003L6.64476 3.84839L6.57627 3.64298C6.56741 3.6164 6.52982 3.6164 6.52091 3.64298Z" fill="#F5F5F5"/>
<path d="M8.04637 3.64298L7.97788 3.84839L7.76137 3.85003C7.73333 3.85021 7.72171 3.88603 7.74426 3.90267L7.9184 4.03129L7.85305 4.23773C7.84462 4.26445 7.87504 4.28657 7.89787 4.27026L8.07402 4.14436L8.25018 4.27026C8.27301 4.28657 8.30338 4.26445 8.29499 4.23773L8.22965 4.03129L8.40379 3.90267C8.42633 3.88603 8.41471 3.85021 8.38668 3.85003L8.17016 3.84839L8.10168 3.64298C8.09282 3.6164 8.05518 3.6164 8.04637 3.64298Z" fill="#F5F5F5"/>
<path d="M9.57176 3.64298L9.50327 3.84839L9.28676 3.85003C9.25872 3.85021 9.2471 3.88603 9.26965 3.90267L9.44383 4.03129L9.37849 4.23773C9.37005 4.26445 9.40047 4.28657 9.4233 4.27026L9.59946 4.14436L9.77562 4.27026C9.79844 4.28657 9.82882 4.26445 9.82043 4.23773L9.75508 4.03129L9.92922 3.90267C9.95177 3.88603 9.94015 3.85021 9.91212 3.85003L9.6956 3.84839L9.62712 3.64298C9.61826 3.6164 9.58062 3.6164 9.57176 3.64298Z" fill="#F5F5F5"/>
<path d="M11.0971 3.64298L11.0287 3.84839L10.8121 3.85003C10.7841 3.85021 10.7725 3.88603 10.795 3.90267L10.9692 4.03129L10.9038 4.23773C10.8954 4.26445 10.9258 4.28657 10.9486 4.27026L11.1248 4.14436L11.301 4.27026C11.3238 4.28657 11.3542 4.26445 11.3458 4.23773L11.2804 4.03129L11.4546 3.90267C11.4771 3.88603 11.4655 3.85021 11.4375 3.85003L11.2209 3.84839L11.1525 3.64298C11.1436 3.6164 11.106 3.6164 11.0971 3.64298Z" fill="#F5F5F5"/>
<path d="M12.6226 3.64298L12.5541 3.84839L12.3376 3.85003C12.3096 3.85021 12.2979 3.88603 12.3205 3.90267L12.4947 4.03129L12.4293 4.23773C12.4209 4.26445 12.4513 4.28657 12.4741 4.27026L12.6503 4.14436L12.8265 4.27026C12.8493 4.28657 12.8797 4.26445 12.8713 4.23773L12.8059 4.03129L12.9801 3.90267C13.0027 3.88603 12.991 3.85021 12.963 3.85003L12.7465 3.84839L12.678 3.64298C12.6691 3.6164 12.6315 3.6164 12.6226 3.64298Z" fill="#F5F5F5"/>
<path d="M8.04637 2.21971L7.97788 2.42512L7.76137 2.42676C7.73333 2.42695 7.72171 2.46276 7.74426 2.4794L7.9184 2.60802L7.85305 2.81446C7.84462 2.84118 7.87504 2.8633 7.89787 2.84699L8.07402 2.72109L8.25018 2.84699C8.27301 2.8633 8.30338 2.84118 8.29499 2.81446L8.22965 2.60802L8.40379 2.4794C8.42633 2.46276 8.41471 2.42695 8.38668 2.42676L8.17016 2.42512L8.10168 2.21971C8.09282 2.19304 8.05518 2.19304 8.04637 2.21971Z" fill="#F5F5F5"/>
<path d="M9.57176 2.21971L9.50327 2.42512L9.28676 2.42676C9.25872 2.42695 9.2471 2.46276 9.26965 2.4794L9.44383 2.60802L9.37849 2.81446C9.37005 2.84118 9.40047 2.8633 9.4233 2.84699L9.59946 2.72109L9.77562 2.84699C9.79844 2.8633 9.82882 2.84118 9.82043 2.81446L9.75508 2.60802L9.92922 2.4794C9.95177 2.46276 9.94015 2.42695 9.91212 2.42676L9.6956 2.42512L9.62712 2.21971C9.61826 2.19304 9.58062 2.19304 9.57176 2.21971Z" fill="#F5F5F5"/>
<path d="M11.0971 2.21971L11.0287 2.42512L10.8121 2.42676C10.7841 2.42695 10.7725 2.46276 10.795 2.4794L10.9692 2.60802L10.9038 2.81446C10.8954 2.84118 10.9258 2.8633 10.9486 2.84699L11.1248 2.72109L11.301 2.84699C11.3238 2.8633 11.3542 2.84118 11.3458 2.81446L11.2804 2.60802L11.4546 2.4794C11.4771 2.46276 11.4655 2.42695 11.4375 2.42676L11.2209 2.42512L11.1525 2.21971C11.1436 2.19304 11.106 2.19304 11.0971 2.21971Z" fill="#F5F5F5"/>
<path d="M12.6226 2.21971L12.5541 2.42512L12.3376 2.42676C12.3096 2.42695 12.2979 2.46276 12.3205 2.4794L12.4947 2.60802L12.4293 2.81446C12.4209 2.84118 12.4513 2.8633 12.4741 2.84699L12.6503 2.72109L12.8265 2.84699C12.8493 2.8633 12.8797 2.84118 12.8713 2.81446L12.8059 2.60802L12.9801 2.4794C13.0027 2.46276 12.991 2.42695 12.963 2.42676L12.7465 2.42512L12.678 2.21971C12.6691 2.19304 12.6315 2.19304 12.6226 2.21971Z" fill="#F5F5F5"/>
<path d="M9.57176 3.64298L9.50327 3.84839L9.28676 3.85003C9.25872 3.85021 9.2471 3.88603 9.26965 3.90267L9.44383 4.03129L9.37849 4.23773C9.37005 4.26445 9.40047 4.28657 9.4233 4.27026L9.59946 4.14436L9.77562 4.27026C9.79844 4.28657 9.82882 4.26445 9.82043 4.23773L9.75508 4.03129L9.92922 3.90267C9.95177 3.88603 9.94015 3.85021 9.91212 3.85003L9.6956 3.84839L9.62712 3.64298C9.61826 3.6164 9.58062 3.6164 9.57176 3.64298Z" fill="#F5F5F5"/>
<path d="M9.57176 0.795812L9.50327 1.00122L9.28676 1.00286C9.25872 1.00305 9.2471 1.03886 9.26965 1.0555L9.44383 1.18412L9.37849 1.39056C9.37005 1.41728 9.40047 1.43941 9.4233 1.42309L9.59946 1.29719L9.77562 1.42309C9.79844 1.43941 9.82882 1.41728 9.82043 1.39056L9.75508 1.18412L9.92922 1.0555C9.95177 1.03886 9.94015 1.00305 9.91212 1.00286L9.6956 1.00122L9.62712 0.795812C9.61826 0.769234 9.58062 0.769234 9.57176 0.795812Z" fill="#F5F5F5"/>
<path d="M11.0971 3.64298L11.0287 3.84839L10.8121 3.85003C10.7841 3.85021 10.7725 3.88603 10.795 3.90267L10.9692 4.03129L10.9038 4.23773C10.8954 4.26445 10.9258 4.28657 10.9486 4.27026L11.1248 4.14436L11.301 4.27026C11.3238 4.28657 11.3542 4.26445 11.3458 4.23773L11.2804 4.03129L11.4546 3.90267C11.4771 3.88603 11.4655 3.85021 11.4375 3.85003L11.2209 3.84839L11.1525 3.64298C11.1436 3.6164 11.106 3.6164 11.0971 3.64298Z" fill="#F5F5F5"/>
<path d="M12.6226 3.64298L12.5541 3.84839L12.3376 3.85003C12.3096 3.85021 12.2979 3.88603 12.3205 3.90267L12.4947 4.03129L12.4293 4.23773C12.4209 4.26445 12.4513 4.28657 12.4741 4.27026L12.6503 4.14436L12.8265 4.27026C12.8493 4.28657 12.8797 4.26445 12.8713 4.23773L12.8059 4.03129L12.9801 3.90267C13.0027 3.88603 12.991 3.85021 12.963 3.85003L12.7465 3.84839L12.678 3.64298C12.6691 3.6164 12.6315 3.6164 12.6226 3.64298Z" fill="#F5F5F5"/>
<path d="M11.0971 0.795812L11.0287 1.00122L10.8121 1.00286C10.7841 1.00305 10.7725 1.03886 10.795 1.0555L10.9692 1.18412L10.9038 1.39056C10.8954 1.41728 10.9258 1.43941 10.9486 1.42309L11.1248 1.29719L11.301 1.42309C11.3238 1.43941 11.3542 1.41728 11.3458 1.39056L11.2804 1.18412L11.4546 1.0555C11.4771 1.03886 11.4655 1.00305 11.4375 1.00286L11.2209 1.00122L11.1525 0.795812C11.1436 0.769234 11.106 0.769234 11.0971 0.795812Z" fill="#F5F5F5"/>
<path d="M12.6226 0.795812L12.5541 1.00122L12.3376 1.00286C12.3096 1.00305 12.2979 1.03886 12.3205 1.0555L12.4947 1.18412L12.4293 1.39056C12.4209 1.41728 12.4513 1.43941 12.4741 1.42309L12.6503 1.29719L12.8265 1.42309C12.8493 1.43941 12.8797 1.41728 12.8713 1.39056L12.8059 1.18412L12.9801 1.0555C13.0027 1.03886 12.991 1.00305 12.963 1.00286L12.7465 1.00122L12.678 0.795812C12.6691 0.769234 12.6315 0.769234 12.6226 0.795812Z" fill="#F5F5F5"/>
</g>
<defs>
<clipPath id="clip0_3386_2852">
<rect width="24" height="16" fill="white"/>
</clipPath>
</defs>
</svg>
