<svg width="54" height="48" viewBox="0 0 54 48" fill="none" xmlns="http://www.w3.org/2000/svg">
<path d="M46.1252 13.1148C47.9692 6.57826 39.4759 2.24055 35.2782 7.57433C34.4846 6.86109 33.5236 6.35992 32.4846 6.11733C31.4455 5.87475 30.3619 5.89861 29.3345 6.18672C28.6301 4.11337 27.155 2.39047 25.215 1.37493C23.275 0.35938 21.0186 0.129015 18.9134 0.731554C16.8081 1.33409 15.0154 2.72336 13.9064 4.61155C12.7975 6.49975 12.4573 8.74217 12.9565 10.8743C10.9056 11.5556 9.18971 12.99 8.15563 14.8877C7.12154 16.7853 6.84633 19.0048 7.38559 21.0975C7.92486 23.1903 9.2384 25.0003 11.0608 26.1619C12.8832 27.3235 15.0786 27.7501 17.2034 27.3554C17.8207 28.4002 18.7328 29.2395 19.8251 29.7681C20.9174 30.2968 22.1415 30.4913 23.3439 30.3273C23.7522 31.1093 24.322 31.7955 25.0156 32.3406C25.7092 32.8856 26.5107 33.2771 27.367 33.4889C28.2233 33.7008 29.1149 33.7282 29.9826 33.5694C30.8503 33.4106 31.6744 33.0692 32.4002 32.5679C33.1835 33.2029 34.1092 33.6385 35.0978 33.8372C36.0864 34.036 37.1085 33.992 38.0764 33.709C39.0443 33.426 39.9291 32.9124 40.6549 32.2124C41.3808 31.5124 41.926 30.6467 42.2438 29.6897C43.36 30.0283 44.5338 30.1344 45.6926 30.0014C46.8514 29.8684 47.9707 29.4992 48.9811 28.9165C49.9916 28.3337 50.8718 27.55 51.5673 26.6136C52.2628 25.6772 52.7589 24.6081 53.0248 23.4724C53.2908 22.3367 53.3209 21.1585 53.1135 20.0107C52.906 18.8629 52.4653 17.7698 51.8187 16.799C51.172 15.8282 50.3331 15.0004 49.3538 14.3668C48.3745 13.7331 47.2757 13.307 46.1252 13.1148ZM27.947 22.7336H21.1595C20.9707 22.73 20.7873 22.6697 20.6332 22.5604C20.4792 22.4511 20.3616 22.298 20.2958 22.1209C20.2301 21.9439 20.2192 21.7511 20.2645 21.5677C20.3099 21.3844 20.4094 21.2189 20.5502 21.093L25.4345 16.8648H21.1595C20.9133 16.8612 20.6784 16.7608 20.5056 16.5854C20.3327 16.41 20.2359 16.1736 20.2359 15.9273C20.2359 15.6811 20.3328 15.4447 20.5056 15.2693C20.6784 15.0939 20.9134 14.9935 21.1596 14.9898H27.947C28.1372 14.9929 28.3219 15.0532 28.4773 15.1627C28.6327 15.2723 28.7515 15.4261 28.8183 15.6042C28.885 15.7822 28.8966 15.9762 28.8516 16.1609C28.8065 16.3456 28.7069 16.5125 28.5657 16.6398L23.6814 20.8586H27.947C28.1927 20.8631 28.4267 20.9639 28.5989 21.1392C28.771 21.3145 28.8674 21.5504 28.8674 21.7961C28.8674 22.0418 28.771 22.2777 28.5989 22.453C28.4267 22.6283 28.1927 22.7291 27.947 22.7336ZM31.5377 18.8055C31.4685 18.6262 31.4565 18.4298 31.5035 18.2434C31.5506 18.0571 31.6542 17.8899 31.8002 17.7648L36.6845 13.5461H32.4095C32.1633 13.5424 31.9284 13.4421 31.7556 13.2666C31.5827 13.0912 31.4858 12.8549 31.4858 12.6086C31.4858 12.3623 31.5827 12.126 31.7556 11.9505C31.9284 11.7751 32.1633 11.6747 32.4095 11.6711H39.197C39.3864 11.6735 39.5706 11.7329 39.7257 11.8415C39.8807 11.9502 39.9994 12.1031 40.0662 12.2803C40.133 12.4575 40.1449 12.6507 40.1002 12.8347C40.0555 13.0187 39.9564 13.1849 39.8157 13.3117L34.9314 17.5398H39.197C39.4428 17.5442 39.677 17.645 39.8492 17.8203C40.0214 17.9956 40.1179 18.2316 40.1179 18.4774C40.1179 18.7231 40.0214 18.9591 39.8492 19.1344C39.6769 19.3098 39.4427 19.4105 39.197 19.4148H32.4095C32.2194 19.4144 32.0339 19.3558 31.8781 19.2469C31.7222 19.1379 31.6034 18.9839 31.5377 18.8055ZM12.244 40.2836C6.33551 40.0964 6.33413 31.5279 12.2439 31.3398C18.1392 31.5297 18.1406 40.0928 12.244 40.2836ZM4.48152 47.5961C3.49733 47.586 2.55688 47.188 1.86449 46.4884C1.1721 45.7889 0.783705 44.8444 0.783691 43.8602C0.783678 42.876 1.17205 41.9315 1.86442 41.2319C2.55679 40.5324 3.49723 40.1343 4.48142 40.1242C5.46561 40.1343 6.40606 40.5324 7.09845 41.2319C7.79083 41.9314 8.17922 42.8759 8.17923 43.8601C8.17924 44.8444 7.79087 45.7888 7.09849 46.4884C6.40612 47.1879 5.46571 47.586 4.48152 47.5961Z" fill="url(#paint0_linear_4782_13497)"/>
<defs>
<linearGradient id="paint0_linear_4782_13497" x1="0.78392" y1="23.9992" x2="53.2511" y2="23.9992" gradientUnits="userSpaceOnUse">
<stop stop-color="#3772FF" stop-opacity="0.5"/>
<stop offset="1" stop-color="#3772FF"/>
</linearGradient>
</defs>
</svg>
