<svg width="145" height="97" viewBox="0 0 145 97" fill="none" xmlns="http://www.w3.org/2000/svg">
<path d="M110.41 96.1825L40.4756 96.2069C36.9623 96.2081 33.8151 94.3789 32.0574 91.314C31.1784 89.7813 30.7389 88.1 30.7383 86.4184C30.7377 84.7369 31.1763 83.0551 32.054 81.522L66.999 17.4276C68.7548 14.3612 71.9007 12.53 75.414 12.5288C78.9274 12.5276 82.0745 14.3566 83.8324 17.4217L118.826 81.4998C119.702 83.0284 120.141 84.7077 120.141 86.3883C120.141 88.0689 119.703 89.7505 118.825 91.2838C117.069 94.3499 113.923 96.1813 110.41 96.1825ZM31.6174 86.4172C31.6172 87.9478 39.3343 84.6496 40.1337 86.0438C41.7329 88.8322 37.2789 95.3243 40.4753 95.3232C40.4753 95.3232 116.468 93.6316 118.065 90.8421C118.864 89.4474 119.263 87.9173 119.262 86.3875C119.262 84.8578 118.861 83.3281 118.062 81.934L83.0683 17.8559C81.4736 15.0755 78.6107 13.4115 75.4143 13.4126C72.2194 13.4137 31.6175 84.8864 31.6174 86.4172Z" fill="#3F3D56"/>
<path d="M95.8204 82.0469C113.502 82.0469 127.837 67.6048 127.837 49.7896C127.837 31.9743 113.502 17.5322 95.8204 17.5322C78.1383 17.5322 63.8042 31.9743 63.8042 49.7896C63.8042 67.6048 78.1383 82.0469 95.8204 82.0469Z" fill="#EF4444"/>
<path d="M95.8263 69.5637C97.4499 69.5637 98.766 68.2376 98.766 66.6019C98.766 64.9662 97.4499 63.6401 95.8263 63.6401C94.2028 63.6401 92.8867 64.9662 92.8867 66.6019C92.8867 68.2376 94.2028 69.5637 95.8263 69.5637Z" fill="white"/>
<path d="M95.8136 30.0154C95.5436 31.8233 96.0274 32.2016 96.0301 39.9954C96.0328 47.7892 97.6378 58.2388 95.8233 58.2394C94.0088 58.24 93.3451 36.6744 87.0444 34.7657C79.6364 32.5216 96.6878 24.1632 95.8136 30.0154Z" fill="white"/>
<path d="M52.8505 66.2591L49.958 72.4168C53.4549 69.8904 58.9169 67.7126 63.2634 66.5461C59.2135 64.5752 54.258 61.3974 51.2974 58.2512L52.9611 64.7576C33.4558 60.7548 19.4488 45.6787 19.4428 28.4088L18.7383 28.1646C18.7445 46.2034 32.5577 62.1723 52.8505 66.2591Z" fill="#3F3D56"/>
</svg>
