<svg width="95" height="85" viewBox="0 0 95 85" fill="none" xmlns="http://www.w3.org/2000/svg">
<g clip-path="url(#clip0_2749_6203)">
<path d="M94.1666 32.5057C94.1326 32.5057 94.0993 32.4953 94.0714 32.4759L47.9783 0.480436C47.838 0.383521 47.6714 0.331728 47.5007 0.332018C47.33 0.332308 47.1635 0.384667 47.0236 0.482059L1.26242 32.4756C1.22623 32.5009 1.18143 32.5109 1.13789 32.5033C1.09434 32.4956 1.05561 32.4711 1.03023 32.435C1.00484 32.3989 0.994868 32.3543 1.00251 32.3109C1.01015 32.2675 1.03478 32.2289 1.07098 32.2036L46.8321 0.210003C47.0281 0.0736755 47.2612 0.00039298 47.5001 1.57609e-06C47.7391 -0.000389828 47.9724 0.072128 48.1688 0.207813L94.2619 32.2032C94.2911 32.2235 94.313 32.2524 94.3244 32.2859C94.3359 32.3194 94.3363 32.3556 94.3257 32.3894C94.315 32.4231 94.2939 32.4526 94.2653 32.4735C94.2366 32.4945 94.2021 32.5057 94.1666 32.5057Z" fill="#3F3D56"/>
<path d="M3.87744 33.6397L47.5461 1.38184L91.5461 35.935L49.7961 60.604L27.1294 55.4543L3.87744 33.6397Z" fill="#E6E6E6"/>
<path d="M29.0425 75.8412H7.46915C7.33668 75.8414 7.20548 75.8155 7.08305 75.7651C6.96062 75.7147 6.84935 75.6407 6.75563 75.5474C6.6619 75.4541 6.58754 75.3433 6.53681 75.2214C6.48608 75.0994 6.45996 74.9687 6.45996 74.8366C6.45996 74.7046 6.48608 74.5739 6.53681 74.4519C6.58754 74.3299 6.6619 74.2191 6.75563 74.1258C6.84935 74.0325 6.96062 73.9585 7.08305 73.9081C7.20548 73.8577 7.33668 73.8319 7.46915 73.832H29.0425C29.175 73.8319 29.3062 73.8577 29.4286 73.9081C29.5511 73.9585 29.6623 74.0325 29.7561 74.1258C29.8498 74.2191 29.9242 74.3299 29.9749 74.4519C30.0256 74.5739 30.0517 74.7046 30.0517 74.8366C30.0517 74.9687 30.0256 75.0994 29.9749 75.2214C29.9242 75.3433 29.8498 75.4541 29.7561 75.5474C29.6623 75.6407 29.5511 75.7147 29.4286 75.7651C29.3062 75.8155 29.175 75.8414 29.0425 75.8412Z" fill="#34D399"/>
<path d="M15.2092 71.5219H7.46915C7.33668 71.5221 7.20548 71.4962 7.08305 71.4458C6.96062 71.3954 6.84935 71.3214 6.75563 71.2281C6.6619 71.1348 6.58754 71.024 6.53681 70.902C6.48608 70.7801 6.45996 70.6493 6.45996 70.5173C6.45996 70.3853 6.48608 70.2545 6.53681 70.1325C6.58754 70.0106 6.6619 69.8998 6.75563 69.8065C6.84935 69.7132 6.96062 69.6392 7.08305 69.5888C7.20548 69.5384 7.33668 69.5125 7.46915 69.5127H15.2092C15.3417 69.5125 15.4729 69.5384 15.5953 69.5888C15.7177 69.6392 15.829 69.7132 15.9227 69.8065C16.0165 69.8998 16.0908 70.0106 16.1416 70.1325C16.1923 70.2545 16.2184 70.3853 16.2184 70.5173C16.2184 70.6493 16.1923 70.7801 16.1416 70.902C16.0908 71.024 16.0165 71.1348 15.9227 71.2281C15.829 71.3214 15.7177 71.3954 15.5953 71.4458C15.4729 71.4962 15.3417 71.5221 15.2092 71.5219Z" fill="#34D399"/>
<path d="M48.16 51.6071C47.996 51.6073 47.8336 51.5756 47.6818 51.5137L20.75 40.3755V5.51099C20.7504 5.2027 20.8734 4.90713 21.0921 4.68913C21.3108 4.47113 21.6074 4.3485 21.9167 4.34814H73.5833C73.8926 4.3485 74.1892 4.47113 74.4079 4.68913C74.6266 4.90713 74.7496 5.2027 74.75 5.51099V40.3998L74.6994 40.4214L48.6527 51.5083C48.4967 51.5736 48.3292 51.6072 48.16 51.6071Z" fill="white"/>
<path d="M48.1601 51.6901C47.9852 51.6903 47.812 51.6565 47.6501 51.5907L20.6667 40.431V5.51105C20.6671 5.18072 20.7989 4.86404 21.0333 4.63047C21.2676 4.3969 21.5853 4.26551 21.9167 4.26514H73.5834C73.9148 4.26551 74.2325 4.3969 74.4669 4.63047C74.7012 4.86404 74.833 5.18072 74.8334 5.51105V40.4547L48.6855 51.5847C48.5191 51.6544 48.3405 51.6903 48.1601 51.6901ZM21.0001 40.2091L47.7773 51.2835C48.027 51.3845 48.3067 51.3828 48.5553 51.2789L74.5001 40.2354V5.51105C74.4998 5.26881 74.4031 5.03659 74.2313 4.8653C74.0594 4.69402 73.8264 4.59767 73.5834 4.59738H21.9168C21.6737 4.59767 21.4407 4.69402 21.2689 4.8653C21.097 5.03659 21.0004 5.26881 21.0001 5.51105L21.0001 40.2091Z" fill="#3F3D56"/>
<path d="M93.8333 32.1733H93.8L74.6667 40.3166L48.4884 51.4583C48.3861 51.5012 48.2763 51.5236 48.1653 51.5242C48.0544 51.5247 47.9444 51.5035 47.8416 51.4617L20.8333 40.2933L1.22998 32.1866L1.20003 32.1733H1.16667C0.857353 32.1737 0.560805 32.2963 0.342087 32.5143C0.123369 32.7323 0.000343208 33.0279 0 33.3362V83.837C0.000343649 84.1453 0.123369 84.4409 0.342087 84.6589C0.560805 84.8769 0.857353 84.9995 1.16667 84.9999H93.8333C94.1426 84.9995 94.4392 84.8769 94.6579 84.6589C94.8766 84.4409 94.9997 84.1453 95 83.837V33.3362C94.9997 33.0279 94.8766 32.7323 94.6579 32.5143C94.4392 32.2963 94.1426 32.1737 93.8333 32.1733ZM94.6667 83.837C94.6666 84.0573 94.5788 84.2685 94.4225 84.4242C94.2662 84.58 94.0543 84.6675 93.8333 84.6676H1.16667C0.94568 84.6675 0.733771 84.58 0.57751 84.4242C0.421248 84.2685 0.333422 84.0573 0.333333 83.837V33.3362C0.333636 33.1214 0.417227 32.915 0.56663 32.7602C0.716033 32.6054 0.919683 32.5142 1.13501 32.5056L20.8333 40.6522L47.7134 51.769C48.0044 51.887 48.3304 51.8852 48.62 51.764L74.6667 40.6771L93.8667 32.5056C94.0817 32.5148 94.2848 32.6063 94.4337 32.761C94.5827 32.9157 94.6662 33.1217 94.6667 33.3362V83.837Z" fill="#3F3D56"/>
<path d="M47.8907 41.7209C46.8965 41.7228 45.9286 41.4023 45.1331 40.8079L45.0838 40.771L34.6986 32.8458C34.2176 32.4785 33.814 32.0203 33.5106 31.4975C33.2073 30.9747 33.0103 30.3975 32.9308 29.7988C32.8513 29.2001 32.8908 28.5917 33.0472 28.0082C33.2036 27.4248 33.4738 26.8777 33.8423 26.3983C34.2108 25.919 34.6705 25.5166 35.195 25.2143C35.7195 24.912 36.2986 24.7156 36.8993 24.6363C37.5 24.5571 38.1104 24.5965 38.6958 24.7524C39.2811 24.9083 39.83 25.1776 40.3109 25.5449L47.0377 30.686L62.934 10.0227C63.3027 9.54344 63.7624 9.14125 64.2871 8.8391C64.8117 8.53695 65.3909 8.34075 65.9916 8.26172C66.5923 8.18268 67.2027 8.22236 67.788 8.37847C68.3733 8.53458 68.922 8.80408 69.4029 9.17157L69.304 9.30533L69.4054 9.17352C70.3753 9.91651 71.0099 11.0126 71.17 12.2214C71.3301 13.4302 71.0026 14.6529 70.2593 15.6213L51.5615 39.9262C51.129 40.4863 50.5729 40.9395 49.9363 41.2508C49.2997 41.562 48.5998 41.7229 47.8907 41.7209Z" fill="#34D399"/>
</g>
<defs>
<clipPath id="clip0_2749_6203">
<rect width="95" height="85" fill="white"/>
</clipPath>
</defs>
</svg>
