<svg width="141" height="142" viewBox="0 0 141 142" fill="none" xmlns="http://www.w3.org/2000/svg">
<g id="undraw_winners_re_wr1l 1" clip-path="url(#clip0_2750_6427)">
<path id="Vector" d="M35.5679 136.265C35.4123 136.272 35.2583 136.231 35.1267 136.148C34.9951 136.064 34.8923 135.943 34.8322 135.799C34.7721 135.655 34.7577 135.497 34.7908 135.345C34.8239 135.193 34.903 135.054 35.0174 134.949C35.0365 134.872 35.0503 134.818 35.0694 134.742C34.9205 134.364 34.6621 134.039 34.3272 133.808C33.9923 133.578 33.5962 133.453 33.1898 133.449C32.7833 133.445 32.3849 133.563 32.0458 133.787C31.7066 134.011 31.4421 134.331 31.2861 134.706C30.3858 136.813 29.2207 138.993 29.8001 141.313C25.9728 133.204 27.2744 123.118 32.9307 116.183C34.4941 115.322 35.7614 113.793 36.0913 112.017C35.3175 112.279 34.3527 111.65 34.9345 110.835C35.1867 110.523 35.4413 110.214 35.6935 109.903C32.7542 106.774 29.2521 111.692 32.4874 115.915C31.429 117.242 30.5123 118.675 29.7521 120.192C29.9276 118.581 29.7181 116.952 29.1408 115.438C28.5556 114.027 27.4588 112.838 26.493 111.618C25.3187 110.132 22.9017 110.818 22.7437 112.704C23.8275 113.06 23.9683 114.625 22.7286 114.839C23.0533 118.348 25.3466 121.573 28.5052 123.112C27.3387 126.384 26.8833 129.866 27.1691 133.328C26.6116 129.282 22.2676 128.301 19.2313 126.693C19.0381 126.569 18.813 126.504 18.5834 126.506C18.3538 126.508 18.1298 126.576 17.9385 126.703C17.7473 126.83 17.5972 127.01 17.5064 127.221C17.4157 127.432 17.3883 127.664 17.4276 127.89C17.8467 128.061 18.2478 128.272 18.625 128.522C18.8018 128.641 18.9374 128.811 19.0134 129.01C19.0894 129.209 19.102 129.427 19.0495 129.633C18.997 129.839 18.8819 130.024 18.72 130.163C18.5581 130.301 18.3574 130.386 18.1454 130.406C19.6758 134.192 23.6327 136.735 27.6966 136.721C28.0872 138.417 28.653 140.069 29.3851 141.648H35.4167C35.4384 141.581 35.4578 141.512 35.4773 141.445C34.919 141.48 34.3585 141.447 33.8083 141.346C35.2854 139.597 36.4277 138.705 35.5681 136.265L35.5679 136.265Z" fill="#F2F2F2"/>
<path id="Vector_2" d="M89.3417 136.265C89.4973 136.272 89.6513 136.231 89.7829 136.148C89.9145 136.064 90.0173 135.943 90.0774 135.799C90.1375 135.655 90.1519 135.497 90.1188 135.345C90.0857 135.193 90.0066 135.054 89.8922 134.949C89.8731 134.872 89.8593 134.818 89.8402 134.742C89.9891 134.364 90.2475 134.039 90.5824 133.808C90.9173 133.578 91.3134 133.453 91.7198 133.449C92.1263 133.445 92.5247 133.563 92.8639 133.787C93.203 134.011 93.4676 134.331 93.6236 134.706C94.5238 136.813 95.6889 138.993 95.1095 141.313C98.9368 133.204 97.6352 123.118 91.979 116.183C90.4155 115.322 89.1483 113.793 88.8184 112.017C89.5921 112.279 90.5569 111.65 89.9751 110.835C89.7229 110.523 89.4683 110.214 89.2161 109.903C92.1554 106.774 95.6576 111.692 92.4222 115.915C93.4806 117.242 94.3974 118.675 95.1575 120.192C94.982 118.581 95.1915 116.952 95.7689 115.438C96.354 114.027 97.4508 112.838 98.4166 111.618C99.591 110.132 102.008 110.818 102.166 112.704C101.082 113.06 100.941 114.625 102.181 114.839C101.856 118.348 99.563 121.573 96.4045 123.112C97.5709 126.384 98.0264 129.866 97.7405 133.328C98.298 129.282 102.642 128.301 105.678 126.693C105.872 126.569 106.097 126.504 106.326 126.506C106.556 126.508 106.78 126.576 106.971 126.703C107.162 126.83 107.312 127.01 107.403 127.221C107.494 127.432 107.521 127.664 107.482 127.89C107.063 128.061 106.662 128.272 106.285 128.522C106.108 128.641 105.972 128.811 105.896 129.01C105.82 129.209 105.808 129.427 105.86 129.633C105.913 129.839 106.028 130.024 106.19 130.163C106.351 130.301 106.552 130.386 106.764 130.406C105.234 134.192 101.277 136.735 97.213 136.721C96.8225 138.417 96.2566 140.069 95.5246 141.648H89.4929C89.4712 141.581 89.4518 141.512 89.4323 141.445C89.9906 141.48 90.5511 141.447 91.1013 141.346C89.6242 139.597 88.4821 138.705 89.3417 136.265Z" fill="#F2F2F2"/>
<path id="Vector_3" d="M91.5782 137.16L88.9806 137.751L85.4648 128.016L89.2987 127.144L91.5782 137.16Z" fill="#FFB6B6"/>
<path id="Vector_4" d="M92.2862 139.848L84.2982 141.665L84.2753 141.564C84.0877 140.74 84.2353 139.875 84.6857 139.159C85.1361 138.444 85.8523 137.936 86.6768 137.749L87.8842 136.31L90.8585 136.797L91.5558 136.639L92.2862 139.848Z" fill="#2F2E41"/>
<path id="Vector_5" d="M133.481 89.7095L134.909 91.9575L126.915 98.534L124.807 95.2159L133.481 89.7095Z" fill="#FFB6B6"/>
<path id="Vector_6" d="M135.777 88.1411L140.168 95.0542L140.081 95.1097C139.367 95.5628 138.502 95.714 137.677 95.5299C136.852 95.3457 136.133 94.8414 135.68 94.1279L133.919 93.4734L133.381 90.5089L132.998 89.9054L135.777 88.1411Z" fill="#2F2E41"/>
<path id="Vector_7" d="M50.6796 65.675L50.0381 61.9576L59.7919 57.5547L61.8983 53.8266C61.8303 53.4994 61.8541 53.1598 61.967 52.8454C62.0799 52.5309 62.2776 52.2537 62.5382 52.0444C62.7988 51.8352 63.1122 51.702 63.4437 51.6597C63.7753 51.6173 64.1121 51.6673 64.417 51.8043C64.7219 51.9413 64.983 52.1598 65.1714 52.4358C65.3598 52.7118 65.4683 53.0345 65.4848 53.3682C65.5013 53.702 65.4252 54.0338 65.2649 54.327C65.1046 54.6202 64.8663 54.8634 64.5764 55.0297L61.1113 60.3851L50.6796 65.675Z" fill="#FFCAAA"/>
<path id="Vector_8" d="M47.7148 62.636L52.1073 60.3931L53.27 64.7575L50.219 67.0183L47.7148 62.636Z" fill="#3772FF"/>
<path id="Vector_9" d="M37.8585 136.822L40.5143 136.822L41.7778 126.581L37.8579 126.581L37.8585 136.822Z" fill="#FFCAAA"/>
<path id="Vector_10" d="M41.3979 137.061V135.261L40.6997 135.304L37.8575 135.472L37.1997 135.513L36.6969 141.541L36.6699 141.864H38.5557L38.6163 141.543L38.8902 140.084L39.5974 141.543L39.7523 141.864H44.7519C45.0494 141.862 45.3342 141.743 45.5444 141.532C45.7545 141.322 45.8731 141.037 45.8744 140.739C46.0855 139.754 41.9277 137.624 41.3979 137.061Z" fill="#2F2E41"/>
<path id="Vector_11" d="M6.33249 96.1816L5.71338 98.7636L15.3805 102.379L16.2942 98.569L6.33249 96.1816Z" fill="#FFCAAA"/>
<path id="Vector_12" d="M5.48487 99.5669L7.23574 99.9866L7.35705 99.2979L7.856 96.4958L7.97008 95.847L2.22345 93.9526L1.91536 93.8511L1.47567 95.6843L1.77372 95.818L3.12889 96.4244L1.54497 96.7717L1.19667 96.8475L0.0309595 101.708C-0.0365769 101.997 0.0129139 102.302 0.168695 102.555C0.324475 102.809 0.573962 102.99 0.862977 103.061C1.77217 103.496 4.81338 99.9506 5.48487 99.5669Z" fill="#2F2E41"/>
<path id="Vector_13" d="M41.9648 70.5457L38.5463 68.9482L31.7291 77.1954L27.5767 78.2452C27.2789 78.0935 26.9449 78.027 26.6117 78.0531C26.2784 78.0792 25.9589 78.1968 25.6883 78.393C25.4178 78.5893 25.2068 78.8564 25.0786 79.165C24.9504 79.4736 24.91 79.8116 24.9619 80.1417C25.0139 80.4718 25.156 80.7811 25.3728 81.0355C25.5895 81.2899 25.8723 81.4795 26.1901 81.5832C26.5078 81.687 26.848 81.701 27.1732 81.6236C27.4984 81.5462 27.7958 81.3805 28.0327 81.1447L34.1131 79.2131L41.9648 70.5457Z" fill="#FFCAAA"/>
<path id="Vector_14" d="M90.4298 40.0159C89.7052 40.0159 88.9969 39.8011 88.3944 39.3986C87.7919 38.9962 87.3223 38.4242 87.045 37.755C86.7677 37.0857 86.6951 36.3493 86.8365 35.6389C86.9779 34.9284 87.3268 34.2758 87.8392 33.7636C88.3516 33.2514 89.0044 32.9026 89.7151 32.7613C90.4258 32.62 91.1624 32.6925 91.8319 32.9697C92.5013 33.2469 93.0736 33.7163 93.4761 34.3186C93.8787 34.9209 94.0936 35.629 94.0936 36.3534C94.0925 37.3244 93.7061 38.2553 93.0193 38.942C92.3324 39.6286 91.4012 40.0148 90.4298 40.0159ZM90.4298 33.1112C89.7884 33.1112 89.1613 33.3014 88.628 33.6576C88.0946 34.0139 87.6789 34.5202 87.4334 35.1127C87.188 35.7051 87.1237 36.357 87.2489 36.9859C87.374 37.6148 87.6829 38.1925 88.1365 38.646C88.5901 39.0994 89.168 39.4082 89.7971 39.5333C90.4263 39.6584 91.0784 39.5942 91.671 39.3488C92.2636 39.1034 92.7702 38.6878 93.1265 38.1546C93.4829 37.6215 93.6731 36.9946 93.6731 36.3534C93.6721 35.4938 93.3301 34.6697 92.7221 34.0619C92.1141 33.4541 91.2897 33.1122 90.4298 33.1112Z" fill="#34D399"/>
<path id="Vector_15" d="M90.1714 37.7334C90.164 37.7334 90.1566 37.7332 90.1493 37.7328C90.0842 37.7297 90.0206 37.7125 89.9628 37.6825C89.905 37.6525 89.8544 37.6103 89.8145 37.5589L89.2373 36.8172C89.2009 36.7704 89.174 36.7168 89.1583 36.6596C89.1425 36.6024 89.1382 36.5427 89.1456 36.4838C89.1529 36.425 89.1718 36.3681 89.2011 36.3165C89.2305 36.265 89.2697 36.2197 89.3165 36.1833L89.3373 36.1671C89.3841 36.1307 89.4377 36.1038 89.4949 36.088C89.5522 36.0723 89.6119 36.068 89.6708 36.0753C89.7298 36.0827 89.7866 36.1016 89.8382 36.1309C89.8898 36.1603 89.9351 36.1995 89.9715 36.2463C90.0007 36.2838 90.0376 36.3144 90.0797 36.3363C90.1218 36.3581 90.1681 36.3706 90.2155 36.373C90.2629 36.3753 90.3102 36.3673 90.3543 36.3497C90.3983 36.332 90.438 36.305 90.4706 36.2706L91.6424 35.0339C91.7249 34.9471 91.8385 34.8965 91.9583 34.8932C92.078 34.89 92.1942 34.9343 92.2813 35.0166L92.3005 35.0349C92.3436 35.0757 92.3782 35.1246 92.4024 35.1787C92.4266 35.2329 92.4399 35.2913 92.4415 35.3506C92.4431 35.4099 92.433 35.469 92.4117 35.5243C92.3905 35.5797 92.3586 35.6304 92.3178 35.6735L90.4992 37.5923C90.4571 37.6369 90.4062 37.6724 90.3498 37.6966C90.2935 37.7209 90.2327 37.7334 90.1714 37.7334Z" fill="#34D399"/>
<path id="Vector_16" d="M72.1403 84.3581C71.4157 84.3581 70.7073 84.1434 70.1048 83.7409C69.5023 83.3385 69.0327 82.7665 68.7554 82.0972C68.4781 81.428 68.4056 80.6916 68.547 79.9812C68.6883 79.2707 69.0373 78.6181 69.5496 78.1059C70.062 77.5937 70.7148 77.2449 71.4255 77.1036C72.1362 76.9623 72.8729 77.0348 73.5423 77.312C74.2118 77.5892 74.784 78.0586 75.1866 78.6609C75.5892 79.2632 75.804 79.9713 75.804 80.6957C75.8029 81.6667 75.4166 82.5976 74.7297 83.2842C74.0429 83.9709 73.1116 84.3571 72.1403 84.3581ZM72.1403 77.4535C71.4988 77.4535 70.8718 77.6437 70.3384 77.9999C69.8051 78.3562 69.3894 78.8625 69.1439 79.455C68.8984 80.0474 68.8342 80.6993 68.9593 81.3282C69.0845 81.9571 69.3934 82.5348 69.8469 82.9882C70.3005 83.4417 70.8784 83.7505 71.5076 83.8756C72.1367 84.0007 72.7888 83.9364 73.3815 83.6911C73.9741 83.4457 74.4806 83.0301 74.837 82.4969C75.1934 81.9638 75.3836 81.3369 75.3836 80.6957C75.3826 79.8361 75.0406 79.012 74.4326 78.4042C73.8245 77.7964 73.0002 77.4545 72.1403 77.4535Z" fill="#34D399"/>
<path id="Vector_17" d="M71.8818 82.0752C71.8744 82.0752 71.8671 82.0749 71.8597 82.0746C71.7947 82.0714 71.7311 82.0543 71.6733 82.0243C71.6155 81.9943 71.5649 81.9521 71.5249 81.9007L70.9478 81.159C70.9113 81.1122 70.8845 81.0586 70.8687 81.0014C70.853 80.9442 70.8487 80.8845 70.856 80.8256C70.8634 80.7668 70.8823 80.7099 70.9116 80.6583C70.9409 80.6068 70.9801 80.5615 71.027 80.5251L71.0478 80.5089C71.0946 80.4725 71.1482 80.4456 71.2054 80.4298C71.2626 80.4141 71.3224 80.4098 71.3813 80.4171C71.4402 80.4245 71.4971 80.4434 71.5487 80.4727C71.6003 80.5021 71.6456 80.5413 71.682 80.5881C71.7111 80.6256 71.748 80.6562 71.7901 80.6781C71.8323 80.6999 71.8786 80.7124 71.926 80.7148C71.9733 80.7171 72.0207 80.7091 72.0647 80.6915C72.1087 80.6738 72.1484 80.6468 72.1811 80.6124L73.3529 79.3757C73.4354 79.2889 73.549 79.2383 73.6687 79.235C73.7885 79.2318 73.9047 79.2761 73.9918 79.3584L74.011 79.3767C74.054 79.4175 74.0887 79.4664 74.1129 79.5205C74.1371 79.5747 74.1503 79.6331 74.1519 79.6924C74.1535 79.7517 74.1434 79.8107 74.1222 79.8661C74.101 79.9215 74.069 79.9722 74.0282 80.0153L72.2097 81.9341C72.1675 81.9787 72.1167 82.0142 72.0603 82.0384C72.0039 82.0627 71.9432 82.0752 71.8818 82.0752Z" fill="#34D399"/>
<path id="Vector_18" d="M31.9875 34.9724C31.2628 34.9724 30.5545 34.7576 29.952 34.3552C29.3495 33.9527 28.8799 33.3807 28.6026 32.7115C28.3253 32.0423 28.2528 31.3059 28.3941 30.5954C28.5355 29.885 28.8844 29.2324 29.3968 28.7202C29.9092 28.208 30.562 27.8592 31.2727 27.7178C31.9834 27.5765 32.7201 27.649 33.3895 27.9263C34.059 28.2035 34.6312 28.6729 35.0337 29.2752C35.4363 29.8775 35.6512 30.5856 35.6512 31.3099C35.6501 32.281 35.2638 33.2119 34.5769 33.8985C33.8901 34.5851 32.9588 34.9713 31.9875 34.9724ZM31.9875 28.0678C31.346 28.0678 30.719 28.2579 30.1856 28.6142C29.6522 28.9704 29.2365 29.4768 28.9911 30.0692C28.7456 30.6616 28.6814 31.3135 28.8065 31.9425C28.9316 32.5714 29.2405 33.1491 29.6941 33.6025C30.1477 34.0559 30.7256 34.3647 31.3547 34.4898C31.9839 34.6149 32.636 34.5507 33.2286 34.3053C33.8212 34.0599 34.3278 33.6444 34.6842 33.1112C35.0405 32.578 35.2308 31.9512 35.2307 31.3099C35.2298 30.4504 34.8878 29.6263 34.2797 29.0185C33.6717 28.4106 32.8473 28.0687 31.9875 28.0678Z" fill="#34D399"/>
<path id="Vector_19" d="M31.729 32.6894C31.7216 32.6894 31.7142 32.6892 31.7069 32.6888C31.6418 32.6857 31.5782 32.6685 31.5205 32.6385C31.4627 32.6085 31.4121 32.5664 31.3721 32.515L30.795 31.7732C30.7585 31.7264 30.7316 31.6729 30.7159 31.6157C30.7002 31.5585 30.6958 31.4987 30.7032 31.4399C30.7105 31.381 30.7294 31.3242 30.7588 31.2726C30.7881 31.221 30.8273 31.1757 30.8742 31.1393L30.8949 31.1232C30.9418 31.0867 30.9953 31.0598 31.0526 31.0441C31.1098 31.0283 31.1696 31.024 31.2285 31.0314C31.2874 31.0387 31.3442 31.0576 31.3958 31.087C31.4474 31.1163 31.4927 31.1555 31.5292 31.2024C31.5583 31.2398 31.5952 31.2705 31.6373 31.2923C31.6794 31.3142 31.7257 31.3267 31.7731 31.329C31.8205 31.3313 31.8678 31.3234 31.9119 31.3057C31.9559 31.288 31.9956 31.2611 32.0283 31.2267L33.2001 29.99C33.2826 29.9031 33.3961 29.8525 33.5159 29.8493C33.6357 29.846 33.7518 29.8904 33.8389 29.9726L33.8581 29.9909C33.9012 30.0317 33.9359 30.0806 33.96 30.1348C33.9842 30.189 33.9975 30.2474 33.9991 30.3067C34.0007 30.366 33.9906 30.425 33.9694 30.4804C33.9481 30.5358 33.9162 30.5865 33.8754 30.6295L32.0569 32.5484C32.0147 32.5929 31.9638 32.6284 31.9075 32.6527C31.8511 32.6769 31.7903 32.6894 31.729 32.6894Z" fill="#34D399"/>
<path id="Vector_20" d="M61.3193 97.9754C52.8235 97.9754 43.0598 88.5509 34.4213 93.0288C8.26628 106.586 11.8667 83.8998 4.35254 75.4624L4.59923 74.9678C12.8902 82.3994 23.2418 88.4459 34.5349 92.4534C44.7403 96.0753 55.0223 97.7534 64.2655 97.3106L64.2815 97.9051C63.3054 97.9522 62.318 97.9756 61.3193 97.9754Z" fill="#F2F2F2"/>
<path id="Vector_21" d="M49.665 34.2556C50.6458 34.2556 51.4408 33.1898 51.4408 31.8751C51.4408 30.5604 50.6458 29.4946 49.665 29.4946C48.6842 29.4946 47.8892 30.5604 47.8892 31.8751C47.8892 33.1898 48.6842 34.2556 49.665 34.2556Z" fill="#E6E6E6"/>
<path id="Vector_22" d="M70.1763 71.3912C69.3645 71.9319 68.5335 70.6449 69.361 70.1281C70.1728 69.5874 71.0038 70.8745 70.1763 71.3912Z" fill="#E6E6E6"/>
<path id="Vector_23" d="M65.5029 28.0618C66.78 28.0618 67.8154 27.0269 67.8154 25.7502C67.8154 24.4734 66.78 23.4385 65.5029 23.4385C64.2258 23.4385 63.1904 24.4734 63.1904 25.7502C63.1904 27.0269 64.2258 28.0618 65.5029 28.0618Z" fill="#FF6584"/>
<path id="Vector_24" opacity="0.3" d="M73.591 38.4177L86.7496 0L72.3006 37.9578C72.2292 38.0479 72.1802 38.1537 72.1579 38.2665C72.1355 38.3793 72.1403 38.4958 72.172 38.6063C72.2037 38.7168 72.2613 38.8182 72.34 38.9021C72.4187 38.9859 72.5162 39.0498 72.6246 39.0884C72.7329 39.127 72.8489 39.1393 72.9629 39.1241C73.0769 39.1089 73.1857 39.0668 73.2802 39.0013C73.3747 38.9357 73.4521 38.8485 73.5062 38.747C73.5602 38.6455 73.5893 38.5326 73.591 38.4177Z" fill="#F0F0F0"/>
<path id="Vector_25" d="M60.309 85.2214C61.5515 85.2214 62.5589 84.2144 62.5589 82.9723C62.5589 81.7301 61.5515 80.7231 60.309 80.7231C59.0664 80.7231 58.0591 81.7301 58.0591 82.9723C58.0591 84.2144 59.0664 85.2214 60.309 85.2214Z" fill="#F2F2F2"/>
<path id="Vector_26" d="M38.5183 83.8306C38.5183 83.8306 32.9094 87.4816 34.3925 89.9077C34.4437 89.9914 27.6927 98.9046 27.6927 98.9046L14.9485 98.0958L14.4995 102.36L25.8453 105.645C25.8453 105.645 28.6209 107.683 30.7652 105.437C32.9094 103.191 40.0516 96.3134 40.0516 96.3134L40.3961 110.2L36.8108 129.442L42.1641 129.102L47.3746 109.798L49.2979 87.9305L38.5183 83.8306Z" fill="#2F2E41"/>
<path id="Vector_27" d="M42.5138 61.9184L40.1551 63.7052L37.4667 69.441L40.0519 72.9507C40.0519 72.9507 42.2264 76.718 38.7457 80.3665C35.2651 84.0149 32.5923 87.9115 35.3782 87.7724C38.1642 87.6333 49.4475 93.3702 49.5217 88.6701C49.596 83.97 49.7462 80.3665 49.7462 80.3665L52.7045 72.8659C52.7045 72.8659 54.4669 68.3914 53.2295 67.0521C51.9921 65.7127 50.3353 64.0012 50.3353 64.0012L47.3224 60.9893H44.6019L42.5138 61.9184Z" fill="#3772FF"/>
<path id="Vector_28" d="M46.9165 50.8977C52.208 53.9077 47.864 61.8496 42.4739 59.0215C37.1826 56.0116 41.5266 48.0697 46.9165 50.8977Z" fill="#FFCAAA"/>
<path id="Vector_29" d="M49.7464 52.5662C49.3756 53.0482 48.601 52.8222 47.084 53.1662C47.0874 52.6522 47.028 52.1397 46.9071 51.6401C46.7943 52.2587 46.5469 52.845 46.1826 53.3576C44.8654 53.5036 46.4801 57.5038 45.8057 60.4449C44.9367 54.2401 43.109 55.8657 44.0323 57.0964C44.6234 57.8843 44.2294 60.2479 42.4561 59.0661C39.5302 60.4562 35.3628 53.551 39.9815 50.3126C39.899 48.5621 41.8474 48.2856 43.0472 48.8238C45.9589 46.6555 49.2855 49.4338 49.7464 52.5662Z" fill="#2F2E41"/>
<path id="Vector_30" d="M36.1695 48.039C34.9915 55.2797 28.6771 46.7074 25.7081 53.8329C24.7746 56.4134 26.3763 58.2593 27.3894 60.4012C27.6206 62.1615 25.3299 63.0546 25.0899 64.6749C25.0231 68.3896 31.0182 68.1623 32.6942 65.8186C34.4163 63.3652 32.3599 60.0736 33.3949 57.4402C34.8498 53.7841 40.7662 53.7569 41.2816 49.5033C40.2834 48.0823 37.5992 46.4549 36.1695 48.039Z" fill="#2F2E41"/>
<path id="Vector_31" d="M40.942 48.7466C40.9034 48.7628 40.8649 48.779 40.8304 48.7973H40.8284C40.7959 48.8135 40.7635 48.8297 40.731 48.848C40.7269 48.85 40.7249 48.852 40.7209 48.8541C40.6783 48.8135 40.6357 48.773 40.591 48.7324C40.5795 48.7985 40.5823 48.8662 40.5992 48.9311L40.6052 48.9555C40.6458 48.998 40.6884 49.0386 40.733 49.0812C40.7736 49.0508 40.8121 49.0183 40.8527 48.9879C40.8771 48.9676 40.9014 48.9473 40.9278 48.9271C40.9318 48.8743 40.9379 48.8135 40.944 48.7466L40.942 48.7466ZM42.1631 46.4918C41.2584 46.2849 40.9663 47.4671 40.8791 48.0369C40.5505 45.9686 39.1833 46.6195 39.6559 48.0308C39.8066 48.4486 40.0437 48.83 40.3517 49.1501C40.3943 49.1988 40.4409 49.2474 40.4896 49.2961C40.4348 49.58 40.7107 49.507 41.0839 49.2454C41.3595 49.0495 41.6144 48.8259 41.8446 48.5783C42.589 47.7976 43.1692 46.7533 42.1631 46.4918ZM42.1915 47.6557C41.9124 48.0155 41.5992 48.3475 41.2564 48.6472C41.1489 48.7446 41.0393 48.8378 40.9278 48.9271C40.9257 48.9453 40.9257 48.9615 40.9237 48.9757C40.9159 48.9954 40.9064 49.0144 40.8953 49.0325C40.7817 49.2373 40.6539 49.1258 40.6052 48.9555C40.6012 48.9494 40.5951 48.9433 40.591 48.9372C40.4289 48.7698 40.2879 48.5832 40.1712 48.3816C39.3334 46.9298 40.6823 45.9423 40.6154 48.6533C40.603 48.6782 40.5948 48.7049 40.591 48.7324C40.5795 48.7985 40.5823 48.8662 40.5992 48.9311L40.6052 48.9555C40.6458 48.998 40.6884 49.0386 40.733 49.0812C40.7736 49.0508 40.8121 49.0183 40.8527 48.9879C40.8771 48.9676 40.9014 48.9473 40.9278 48.9271C40.9318 48.8743 40.9379 48.8135 40.944 48.7466V48.7446C40.9967 48.2011 41.1408 47.2238 41.4065 46.9581C41.9907 46.51 42.7472 46.9946 42.1915 47.6557ZM40.942 48.7466C40.9034 48.7628 40.8649 48.779 40.8304 48.7973H40.8284C40.7959 48.8135 40.7635 48.8297 40.731 48.848C40.7269 48.85 40.7249 48.852 40.7209 48.8541C40.6783 48.8135 40.6357 48.773 40.591 48.7324C40.5795 48.7985 40.5823 48.8662 40.5992 48.9311L40.6052 48.9555C40.6458 48.998 40.6884 49.0386 40.733 49.0812C40.7736 49.0508 40.8121 49.0183 40.8527 48.9879C40.8771 48.9676 40.9014 48.9473 40.9278 48.9271C40.9318 48.8743 40.9379 48.8135 40.944 48.7466L40.942 48.7466Z" fill="#2F2E41"/>
<path id="Vector_32" d="M89.8489 88.667L87.8946 93.7618L78.7271 111.839L86.7825 132.868L90.9399 131.771L87.5133 111.839L97.3442 99.8983L109.019 107.814C109.019 107.814 114.197 111.855 116.167 108.024C118.137 104.193 130.882 96.0455 130.882 96.0455L127.729 92.6831L113.052 99.5495L102.921 85.2954L89.8489 88.667Z" fill="#2F2E41"/>
<path id="Vector_33" d="M99.7099 64.6349L96.4929 61.1798L90.9745 60.4209L84.2129 65.1529L84.281 70.3905L87.6236 82.7325C87.6236 82.7325 86.3504 91.5997 89.9066 91.5108C93.4627 91.4218 95.4011 89.6495 96.8495 90.0103C98.2979 90.3711 104.455 91.9065 104.845 90.2982C105.235 88.6899 107.309 89.8414 107.218 88.32C107.127 86.7985 101.603 75.8313 101.603 75.8313L102.977 64.8631L99.7099 64.6349Z" fill="#3772FF"/>
<path id="Vector_34" d="M120.079 48.7304C120.107 49.0169 120.073 49.3063 119.978 49.5781C119.883 49.8499 119.729 50.0975 119.528 50.3036C119.327 50.5096 119.083 50.669 118.813 50.7705C118.543 50.8721 118.255 50.9133 117.968 50.8913L110.57 64.9561L108.583 61.9081L116.145 48.634C116.214 48.1541 116.457 47.7162 116.827 47.4031C117.198 47.0901 117.67 46.9238 118.155 46.9357C118.64 46.9475 119.103 47.1368 119.458 47.4676C119.812 47.7984 120.033 48.2477 120.079 48.7304Z" fill="#FFB6B6"/>
<path id="Vector_35" d="M96.7895 67.2502C96.7895 67.2502 96.4961 69.752 99.3135 70.3713C102.131 70.9907 109.937 66.532 111.216 65.8511C111.617 65.6378 112.161 64.5926 112.719 63.2573C112.969 62.6578 113.222 61.9999 113.467 61.3326C113.608 60.9464 114.286 60.841 114.419 60.458C114.552 60.0772 114.14 59.4186 114.26 59.0597C114.83 57.3558 115.234 56.0041 115.234 56.0041L113.367 52.4976C110.755 53.8778 109.416 56.918 108.431 60.4206L96.7895 67.2502Z" fill="#3772FF"/>
<path id="Vector_36" d="M63.885 51.9602C63.9288 52.2449 64.0346 52.5164 64.1948 52.7557C64.355 52.9951 64.5657 53.1964 64.8122 53.3455C65.0586 53.4946 65.3348 53.5879 65.6212 53.6188C65.9076 53.6497 66.1973 53.6174 66.4699 53.5242L77.1534 65.2907L78.3133 61.8428L67.6692 50.8829C67.4823 50.4355 67.1378 50.0721 66.7008 49.8617C66.2639 49.6513 65.7649 49.6085 65.2984 49.7413C64.8319 49.8741 64.4304 50.1733 64.1699 50.5823C63.9094 50.9912 63.808 51.4815 63.885 51.9602Z" fill="#FFB6B6"/>
<path id="Vector_37" d="M91.0697 64.0642C91.0697 64.0642 91.9801 66.413 89.4074 67.7175C86.8347 69.0219 78.1611 66.658 76.7517 66.3188C76.3104 66.2126 75.5223 65.3366 74.6479 64.1834C74.2553 63.6657 73.8453 63.0921 73.4416 62.5071C73.2079 62.1687 72.5255 62.2361 72.3005 61.8987C72.0768 61.5631 72.3104 60.8226 72.1043 60.5051C71.1259 58.998 70.3965 57.7903 70.3965 57.7903L71.3266 53.9282C74.2007 54.6112 76.2587 57.2195 78.0893 60.3642L91.0697 64.0642Z" fill="#3772FF"/>
<path id="Vector_38" d="M93.8438 59.542C96.7436 59.542 99.0944 57.192 99.0944 54.2932C99.0944 51.3944 96.7436 49.0444 93.8438 49.0444C90.944 49.0444 88.5933 51.3944 88.5933 54.2932C88.5933 57.192 90.944 59.542 93.8438 59.542Z" fill="#FFB6B6"/>
<path id="Vector_39" d="M99.8375 51.2881C99.2851 50.4339 98.2487 49.8646 97.244 50.0246C97.1504 49.3836 96.8828 48.7805 96.4701 48.2811C96.0575 47.7816 95.5157 47.4049 94.9037 47.1919C94.2917 46.979 93.633 46.9379 92.9993 47.0733C92.3656 47.2086 91.7812 47.5152 91.3098 47.9596C91.1547 47.8504 90.9741 47.7832 90.7854 47.7643C90.5967 47.7454 90.4064 47.7756 90.2328 47.8518C89.8869 48.009 89.5861 48.2504 89.3578 48.5539C88.7812 49.2727 88.4104 50.1342 88.2848 51.0469C88.1593 51.9596 88.2836 52.8893 88.6446 53.7369C88.5218 53.2907 88.9692 52.8709 89.4212 52.7707C89.8732 52.6706 90.3473 52.7653 90.8057 52.7001C91.3932 52.6165 91.9213 52.2758 92.5097 52.1992C93.0087 52.1667 93.5092 52.231 93.9837 52.3885C94.4582 52.546 94.958 52.6131 95.4572 52.5863C95.9525 52.5275 96.5904 54.4037 96.5818 55.7251C96.5802 55.9755 96.6318 56.2971 96.8766 56.3502C97.1781 56.4156 97.3528 55.9997 97.6398 55.8863C97.772 55.8484 97.9138 55.8633 98.0353 55.9279C98.1568 55.9925 98.2484 56.1017 98.2909 56.2325C98.3271 56.3655 98.331 56.5051 98.3022 56.6399C98.2735 56.7747 98.213 56.9006 98.1257 57.0073C97.9493 57.2187 97.7399 57.4003 97.5056 57.545L97.6238 57.6433C97.7359 57.7618 97.8859 57.8376 98.0478 57.8577C98.2098 57.8778 98.3737 57.841 98.5115 57.7535C98.7824 57.5701 99.0019 57.3203 99.1489 57.0281C99.7027 56.1719 100.099 55.2234 100.318 54.2276C100.503 53.2276 100.39 52.1422 99.8375 51.2881Z" fill="#2F2E41"/>
<path id="Vector_40" d="M138.681 71.9894C131.908 77.117 118.433 75.4971 114.251 84.2805C101.59 110.874 90.7578 90.6162 79.6719 88.4255L79.5698 87.8823C90.6676 88.8024 102.571 87.3747 113.994 83.7533C124.317 80.481 133.527 75.613 140.628 69.6812L141 70.1454C140.25 70.7721 139.477 71.3868 138.681 71.9894Z" fill="#F2F2F2"/>
<path id="Vector_41" d="M110.047 141.642C109.886 142.119 17.7922 142.119 17.6182 141.643C17.7793 141.164 109.873 141.164 110.047 141.642Z" fill="#CCCCCC"/>
</g>
<defs>
<clipPath id="clip0_2750_6427">
<rect width="141" height="142" fill="white"/>
</clipPath>
</defs>
</svg>
